<?xml version="1.0" standalone="no"?>
<!DOCTYPE svg PUBLIC "-//W3C//DTD SVG 20010904//EN"
 "http://www.w3.org/TR/2001/REC-SVG-20010904/DTD/svg10.dtd">
<svg version="1.0" xmlns="http://www.w3.org/2000/svg"
 width="1536.000000pt" height="1536.000000pt" viewBox="0 0 1536.000000 1536.000000"
 preserveAspectRatio="xMidYMid meet">
<metadata>
Created by potrace 1.14, written by Peter Selinger 2001-2017
</metadata>
<g transform="translate(0.000000,1536.000000) scale(0.100000,-0.100000)"
fill="#000000" stroke="none">
<path d="M7445 13294 c-984 -79 -1821 -453 -2503 -1118 -658 -641 -1056 -1467
-1164 -2411 -19 -169 -16 -647 6 -825 49 -406 142 -756 296 -1113 170 -394
715 -1356 2003 -3535 227 -383 588 -994 802 -1357 342 -579 398 -668 455 -726
196 -198 504 -198 700 0 57 58 113 147 455 726 214 363 575 974 802 1357 1288
2179 1832 3139 2004 3536 152 354 246 706 295 1112 22 178 25 656 6 825 -79
691 -307 1305 -685 1845 -656 937 -1648 1530 -2787 1665 -129 16 -574 28 -685
19z m460 -2235 c583 -75 1095 -504 1273 -1069 58 -185 67 -246 67 -475 0 -167
-4 -227 -19 -295 -108 -500 -407 -888 -851 -1105 -438 -215 -932 -215 -1370 0
-444 217 -743 605 -851 1105 -27 122 -27 468 0 590 93 432 331 782 689 1014
313 204 676 284 1062 235z"/>
</g>
</svg>
