<?xml version="1.0" standalone="no"?>
<!DOCTYPE svg PUBLIC "-//W3C//DTD SVG 20010904//EN"
 "http://www.w3.org/TR/2001/REC-SVG-20010904/DTD/svg10.dtd">
<svg version="1.0" xmlns="http://www.w3.org/2000/svg"
 width="1536.000000pt" height="1536.000000pt" viewBox="0 0 1536.000000 1536.000000"
 preserveAspectRatio="xMidYMid meet">
<metadata>
Created by potrace 1.14, written by Peter Selinger 2001-2017
</metadata>
<g transform="translate(0.000000,1536.000000) scale(0.100000,-0.100000)"
fill="#000000" stroke="none">
<path d="M3769 15356 c-2 -2 -49 -7 -104 -11 -55 -3 -107 -8 -115 -10 -8 -2
-40 -6 -71 -10 -31 -3 -65 -7 -75 -9 -11 -2 -39 -7 -64 -10 -86 -13 -326 -68
-440 -101 -375 -108 -692 -250 -1025 -458 -71 -44 -135 -86 -142 -91 -6 -6
-35 -27 -63 -46 -57 -39 -192 -145 -290 -228 -79 -68 -324 -313 -403 -404
-436 -501 -741 -1113 -886 -1773 -17 -77 -33 -156 -35 -175 -3 -19 -9 -66 -15
-105 -12 -76 -17 -119 -28 -240 -10 -106 -10 -7893 0 -8011 4 -50 9 -102 12
-115 2 -13 6 -50 10 -83 7 -61 9 -73 26 -171 6 -33 13 -71 15 -85 35 -197 144
-550 241 -780 42 -99 166 -353 183 -375 4 -5 22 -37 40 -70 51 -94 209 -330
295 -440 409 -524 947 -947 1540 -1210 318 -141 697 -252 1025 -300 92 -14
189 -25 275 -32 129 -10 7891 -11 8010 0 114 10 183 17 215 23 14 2 43 7 65
10 64 8 245 44 310 61 33 8 70 17 83 19 30 6 241 69 317 96 619 214 1211 606
1643 1088 132 147 133 149 219 262 328 430 560 906 693 1421 37 144 73 314 86
409 3 24 7 54 9 68 4 26 10 88 25 235 9 97 7 7953 -2 7995 -3 14 -9 57 -12 95
-4 39 -9 81 -11 95 -2 14 -7 43 -10 65 -3 22 -10 66 -16 97 -5 32 -12 70 -15
85 -35 201 -143 552 -241 783 -42 99 -166 353 -183 375 -4 6 -22 37 -40 70
-51 94 -209 330 -295 440 -111 142 -181 222 -327 370 -627 637 -1468 1050
-2353 1155 -44 5 -100 12 -125 16 -46 8 -7943 17 -7951 10z"/>
</g>
</svg>
