<?xml version="1.0" standalone="no"?>
<!DOCTYPE svg PUBLIC "-//W3C//DTD SVG 20010904//EN"
 "http://www.w3.org/TR/2001/REC-SVG-20010904/DTD/svg10.dtd">
<svg version="1.0" xmlns="http://www.w3.org/2000/svg"
 width="1536.000000pt" height="1536.000000pt" viewBox="0 0 1536.000000 1536.000000"
 preserveAspectRatio="xMidYMid meet">
<metadata>
Created by potrace 1.14, written by Peter Selinger 2001-2017
</metadata>
<g transform="translate(0.000000,1536.000000) scale(0.100000,-0.100000)"
fill="#000000" stroke="none">
<path d="M7440 13294 c-19 -2 -87 -9 -150 -15 -748 -70 -1511 -390 -2110 -885
-152 -126 -429 -408 -554 -564 -111 -140 -279 -385 -358 -525 -254 -449 -420
-956 -485 -1485 -21 -179 -25 -675 -5 -845 53 -461 171 -881 359 -1275 191
-402 738 -1363 1778 -3125 728 -1233 1338 -2261 1365 -2300 91 -131 251 -215
410 -215 159 0 318 84 410 215 26 38 981 1647 1542 2601 1046 1775 1532 2642
1677 2991 144 347 240 725 283 1108 20 181 17 663 -5 845 -92 748 -376 1425
-843 2010 -127 158 -404 440 -557 566 -592 487 -1285 783 -2057 879 -118 15
-619 28 -700 19z m590 -2257 c58 -14 150 -42 205 -62 542 -201 930 -690 1006
-1270 16 -125 6 -384 -20 -503 -100 -457 -384 -839 -788 -1059 -331 -180 -748
-233 -1118 -142 -276 69 -526 211 -730 414 -215 216 -361 486 -427 790 -25
117 -35 377 -19 500 92 700 625 1244 1328 1355 32 5 148 7 258 5 170 -3 216
-7 305 -28z"/>
</g>
</svg>
