<?xml version="1.0" encoding="UTF-8"?>
<svg width="696px" height="480px" viewBox="0 0 696 480" version="1.1" xmlns="http://www.w3.org/2000/svg" xmlns:xlink="http://www.w3.org/1999/xlink">
    <title>344</title>
    <defs>
        <linearGradient x1="-41.7657464%" y1="98.440814%" x2="185.939856%" y2="-23.7284095%" id="linearGradient-1">
            <stop stop-color="#FFFFFF" offset="0%"></stop>
            <stop stop-color="#EEEEEE" offset="100%"></stop>
        </linearGradient>
        <linearGradient x1="139.616282%" y1="109.652093%" x2="-82.5169116%" y2="-40.5646027%" id="linearGradient-2">
            <stop stop-color="#FFFFFF" offset="0%"></stop>
            <stop stop-color="#EEEEEE" offset="100%"></stop>
        </linearGradient>
    </defs>
    <g id="Page-1" stroke="none" stroke-width="1" fill="none" fill-rule="evenodd">
        <g id="344" transform="translate(0.120000, 0.006962)">
            <polygon id="Path" fill="#3988C4" fill-rule="nonzero" points="350.816 217.870038 350.816 152.808038 327.394 114.811038 172.285 108.565038 109.305 128.865038 105.141 207.980038 109.305 277.727038 138.974 296.465038 148.863 346.953038 224.335 302.190038 300.328 296.465038 350.816 269.399038"></polygon>
            <path d="M671.128,281.308038 C652.088,290.753038 626.817,278.609038 626.817,278.609038 C626.817,278.609038 632.433,251.156038 651.484,241.724038 C670.524,232.279038 695.785,244.411038 695.785,244.411038 C695.785,244.411038 690.168,271.863038 671.128,281.308038 Z" id="Path" fill="url(#linearGradient-1)" fill-rule="nonzero"></path>
            <path d="M280.546,396.671038 C304.216,410.858038 338.175,397.743038 338.175,397.743038 C338.175,397.743038 333.734,361.634038 310.05,347.463038 C286.38,333.277038 252.435,346.375038 252.435,346.375038 C252.435,346.375038 256.876,382.485038 280.546,396.671038 Z" id="Path" fill="url(#linearGradient-2)" fill-rule="nonzero"></path>
            <circle id="Oval" fill="#3988C4" fill-rule="nonzero" transform="translate(610.242000, 431.492038) rotate(180.000000) translate(-610.242000, -431.492038) " cx="610.242" cy="431.492038" r="12.71"></circle>
            <circle id="Oval" fill="#3988C4" fill-rule="nonzero" transform="translate(212.089000, 60.405038) rotate(180.000000) translate(-212.089000, -60.405038) " cx="212.089" cy="60.4050379" r="14.299"></circle>
            <circle id="Oval" fill="#3988C4" fill-rule="nonzero" transform="translate(11.916000, 168.816038) scale(-1, 1) translate(-11.916000, -168.816038) " cx="11.916" cy="168.816038" r="11.916"></circle>
            <circle id="Oval" fill="#3988C4" fill-rule="nonzero" transform="translate(566.392000, 206.516038) scale(-1, 1) translate(-566.392000, -206.516038) " cx="566.392" cy="206.516038" r="5.561"></circle>
            <circle id="Oval" fill="#E1E4E5" fill-rule="nonzero" transform="translate(419.384000, 415.610038) scale(-1, 1) translate(-419.384000, -415.610038) " cx="419.384" cy="415.610038" r="7.149"></circle>
            <circle id="Oval" fill="#E1E4E5" fill-rule="nonzero" transform="translate(447.545000, 468.755038) scale(-1, 1) translate(-447.545000, -468.755038) " cx="447.545" cy="468.755038" r="10.327"></circle>
            <circle id="Oval" fill="#E1E4E5" fill-rule="nonzero" transform="translate(515.254000, 89.270038) scale(-1, 1) translate(-515.254000, -89.270038) " cx="515.254" cy="89.2700379" r="7.86"></circle>
            <circle id="Oval" fill="#E1E4E5" fill-rule="nonzero" transform="translate(49.338000, 297.484038) scale(-1, 1) translate(-49.338000, -297.484038) " cx="49.338" cy="297.484038" r="8.738"></circle>
            <circle id="Oval" fill="#E1E4E5" fill-rule="nonzero" transform="translate(253.204204, 25.615647) scale(-1, 1) rotate(105.000000) translate(-253.204204, -25.615647) " cx="253.204204" cy="25.6156466" r="7.847"></circle>
            <circle id="Oval" fill="#E1E4E5" fill-rule="nonzero" transform="translate(328.984000, 46.135038) scale(-1, 1) translate(-328.984000, -46.135038) " cx="328.984" cy="46.1350379" r="10.439"></circle>
            <ellipse id="Oval" fill="#E1E4E5" fill-rule="nonzero" transform="translate(205.820000, 377.409038) scale(-1, 1) translate(-205.820000, -377.409038) " cx="205.82" cy="377.409038" rx="8.03" ry="6.424"></ellipse>
            <circle id="Oval" fill="#E1E4E5" fill-rule="nonzero" transform="translate(499.163456, 20.001308) scale(-1, 1) rotate(105.000000) translate(-499.163456, -20.001308) " cx="499.163456" cy="20.0013085" r="16.331"></circle>
            <path d="M58.069,191.845038 L58.279,191.845038 C59.523,209.470038 72.63,209.741038 72.63,209.741038 C72.63,209.741038 58.176,210.023038 58.176,230.388038 C58.176,210.023038 43.723,209.741038 43.723,209.741038 C43.723,209.741038 56.825,209.470038 58.069,191.845038 L58.069,191.845038 Z M667.516,330.297038 L667.702,330.297038 C668.806,346.249038 680.436,346.494038 680.436,346.494038 C680.436,346.494038 667.611,346.750038 667.611,365.181038 C667.611,346.750038 654.786,346.494038 654.786,346.494038 C654.786,346.494038 666.412,346.249038 667.516,330.297038 Z" id="Shape" fill="#E1E4E5" fill-rule="nonzero"></path>
            <path d="M159.138,284.497038 L159.138,327.570038 L229.617,285.923038 L236.983,285.803038 C266.274,285.323038 292.635,282.374038 312.346,279.375038 C324.785,277.482038 333.429,268.801038 335.306,257.900038 C337.911,242.779038 340.129,223.622038 340.129,202.336038 C340.129,181.050038 337.911,161.893038 335.306,146.773038 C333.429,135.872038 324.785,127.190038 312.346,125.298038 C290.787,122.017038 261.306,118.802038 228.75,118.802038 C196.195,118.802038 166.713,122.017038 145.155,125.298038 C132.716,127.190038 124.072,135.872038 122.194,146.773038 C119.59,161.893038 117.371,181.050038 117.371,202.336038 C117.371,223.622038 119.59,242.779038 122.194,257.900038 C123.825,267.366038 130.438,274.953038 140.08,278.159038 L159.138,284.497038 Z M94.754,142.046038 C98.794,118.591038 117.437,101.350038 140.967,97.7700379 C163.512,94.3390379 194.44,90.9570379 228.75,90.9570379 C263.061,90.9570379 293.989,94.3390379 316.534,97.7700379 C340.064,101.350038 358.707,118.591038 362.747,142.046038 C365.563,158.393038 367.974,179.159038 367.974,202.336038 C367.974,225.513038 365.563,246.279038 362.747,262.626038 C358.707,286.081038 340.064,303.323038 316.534,306.903038 C295.909,310.041038 268.268,313.139038 237.439,313.644038 L152.299,363.954038 C143.018,369.438038 131.294,362.748038 131.294,351.968038 L131.294,304.582038 C112.451,298.316038 98.222,282.760038 94.754,262.626038 C91.938,246.279038 89.526,225.513038 89.526,202.336038 C89.526,179.159038 91.938,158.393038 94.754,142.046038 L94.754,142.046038 Z" id="Shape" fill="#3988C4"></path>
            <path d="M159.138,160.878038 C151.449,160.878038 145.216,167.112038 145.216,174.801038 C145.216,182.490038 151.449,188.723038 159.138,188.723038 L298.362,188.723038 C306.051,188.723038 312.285,182.490038 312.285,174.801038 C312.285,167.112038 306.051,160.878038 298.362,160.878038 L159.138,160.878038 Z M159.138,216.568038 C151.449,216.568038 145.216,222.801038 145.216,230.490038 C145.216,238.180038 151.449,244.413038 159.138,244.413038 L214.828,244.413038 C222.517,244.413038 228.75,238.180038 228.75,230.490038 C228.75,222.801038 222.517,216.568038 214.828,216.568038 L159.138,216.568038 Z" id="Shape" fill="#FFFFFF"></path>
            <polygon id="Path" fill="#3988C4" fill-rule="nonzero" points="357.198 295.141038 357.198 230.079038 380.621 192.082038 535.729 185.837038 598.709 206.136038 602.873 285.251038 598.709 354.998038 569.041 373.736038 559.151 424.224038 483.679 379.461038 407.687 373.736038 357.198 346.670038"></polygon>
            <path d="M548.716,362.533038 L548.716,405.605038 L478.238,363.959038 L470.871,363.839038 C441.58,363.359038 415.219,360.410038 395.509,357.411038 C383.069,355.518038 374.426,346.836038 372.548,335.935038 C369.943,320.815038 367.725,301.658038 367.725,280.372038 C367.725,259.086038 369.943,239.929038 372.548,224.809038 C374.426,213.908038 383.069,205.226038 395.509,203.334038 C417.067,200.053038 446.549,196.838038 479.104,196.838038 C511.659,196.838038 541.141,200.053038 562.699,203.334038 C575.139,205.226038 583.782,213.908038 585.66,224.809038 C588.264,239.929038 590.483,259.086038 590.483,280.372038 C590.483,301.658038 588.264,320.815038 585.66,335.935038 C584.029,345.402038 577.416,352.989038 567.774,356.195038 L548.716,362.533038 L548.716,362.533038 Z M613.1,220.082038 C609.06,196.627038 590.417,179.386038 566.888,175.806038 C544.343,172.375038 513.414,168.993038 479.104,168.993038 C444.793,168.993038 413.865,172.375038 391.32,175.806038 C367.791,179.386038 349.147,196.627038 345.107,220.082038 C342.292,236.429038 339.88,257.195038 339.88,280.372038 C339.88,303.549038 342.292,324.315038 345.107,340.662038 C349.147,364.117038 367.791,381.358038 391.32,384.939038 C411.945,388.077038 439.587,391.175038 470.415,391.680038 L555.556,441.990038 C564.836,447.474038 576.561,440.784038 576.561,430.004038 L576.561,382.617038 C595.404,376.352038 609.632,360.796038 613.1,340.662038 C615.916,324.315038 618.328,303.549038 618.328,280.372038 C618.328,257.195038 615.916,236.429038 613.1,220.082038 Z" id="Shape" fill="#3988C4"></path>
            <path d="M409.492,238.914038 C401.803,238.914038 395.57,245.148038 395.57,252.837038 C395.57,260.526038 401.803,266.759038 409.492,266.759038 L548.716,266.759038 C556.405,266.759038 562.638,260.526038 562.638,252.837038 C562.638,245.148038 556.405,238.914038 548.716,238.914038 L409.492,238.914038 Z M409.492,294.604038 C401.803,294.604038 395.57,300.837038 395.57,308.526038 C395.57,316.215038 401.803,322.449038 409.492,322.449038 L465.182,322.449038 C472.871,322.449038 479.104,316.215038 479.104,308.526038 C479.104,300.837038 472.871,294.604038 465.182,294.604038 L409.492,294.604038 Z" id="Shape" fill="#FFFFFF"></path>
            <path d="M407.047,35.9790379 C410.697623,33.8713495 415.195377,33.8713495 418.846,35.9790379 L455.445,57.1090379 C459.09551,59.2166605 461.344,63.1117925 461.344,67.3270379 L461.344,109.588038 C461.344,113.803038 459.096,117.698038 455.445,119.806038 L418.846,140.936038 C415.195487,143.044139 410.697513,143.044139 407.047,140.936038 L370.448,119.806038 C366.797792,117.698113 364.549,113.803173 364.549,109.588038 L364.549,67.3270379 C364.549,63.1119031 366.797792,59.2169625 370.448,57.1090379 L407.047,35.9790379 L407.047,35.9790379 Z" id="Path" fill="#3988C4" fill-rule="nonzero"></path>
            <polyline id="Path" stroke="#FFFFFF" stroke-width="7.441" stroke-linecap="round" stroke-linejoin="round" points="430.232 78.0170379 409.833 98.2530379 397.594 86.1120379"></polyline>
        </g>
    </g>
</svg>