<?xml version="1.0" encoding="UTF-8"?>
<svg width="646px" height="416px" viewBox="0 0 646 416" version="1.1" xmlns="http://www.w3.org/2000/svg" xmlns:xlink="http://www.w3.org/1999/xlink">
    <title>4</title>
    <defs>
        <linearGradient x1="-17.271356%" y1="90.0717135%" x2="144.467493%" y2="-7.99034468%" id="linearGradient-1">
            <stop stop-color="#FFFFFF" offset="0%"></stop>
            <stop stop-color="#EEEEEE" offset="100%"></stop>
        </linearGradient>
        <linearGradient x1="52.1319768%" y1="152.923897%" x2="49.1397788%" y2="-104.081096%" id="linearGradient-2">
            <stop stop-color="#FFFFFF" offset="0%"></stop>
            <stop stop-color="#EEEEEE" offset="100%"></stop>
        </linearGradient>
        <linearGradient x1="-27.73436%" y1="171.291007%" x2="163.992515%" y2="-133.073812%" id="linearGradient-3">
            <stop stop-color="#FFFFFF" offset="0%"></stop>
            <stop stop-color="#EEEEEE" offset="100%"></stop>
        </linearGradient>
        <linearGradient x1="-27.7343285%" y1="171.292068%" x2="163.992302%" y2="-133.074975%" id="linearGradient-4">
            <stop stop-color="#FFFFFF" offset="0%"></stop>
            <stop stop-color="#EEEEEE" offset="100%"></stop>
        </linearGradient>
        <linearGradient x1="92.8489061%" y1="32.9212893%" x2="-12.9448123%" y2="74.5745421%" id="linearGradient-5">
            <stop stop-color="#FFFFFF" offset="0%"></stop>
            <stop stop-color="#EEEEEE" offset="100%"></stop>
        </linearGradient>
    </defs>
    <g id="Page-1" stroke="none" stroke-width="1" fill="none" fill-rule="evenodd">
        <g id="4" transform="translate(0.117532, 0.152324)">
            <path d="M578.972468,140.563676 C595.450468,86.2366762 507.964468,51.7126762 507.964468,51.7126762 C507.964468,51.7126762 403.879468,99.7196762 387.181468,91.9706762 C370.483468,84.2216762 468.163468,33.5436762 468.163468,33.5436762 C439.972468,11.8766762 340.502468,0.820676164 340.502468,0.820676164 C340.502468,0.820676164 286.012468,98.6986762 271.735468,87.0766762 C257.457468,75.4556762 324.406468,2.86767616 324.406468,2.86767616 C289.923468,-6.58132384 241.629468,10.3466762 241.629468,10.3466762 C173.244468,44.3226762 220.403468,130.385676 220.403468,130.385676 C220.403468,130.385676 200.789468,163.900676 156.850468,188.928676 C156.850468,188.928676 147.907468,193.030676 135.833468,201.961676 L143.746468,206.913676 C145.672899,205.229211 147.671442,203.629042 149.736468,202.117676 C149.747511,202.104527 149.762084,202.094812 149.778468,202.089676 C149.812468,202.068676 149.833468,202.047676 149.868468,202.026676 C151.684721,200.798757 153.509431,199.583395 155.342468,198.380676 L155.349468,198.373676 L155.356468,198.366676 C160.736468,195.138676 164.562468,192.670676 167.167468,190.792676 L167.187468,190.771676 C183.733468,180.439676 206.282468,167.606676 215.783468,167.903676 C215.783468,167.903676 215.676468,166.123676 216.356468,163.212676 C216.177468,164.708676 215.976468,166.267676 215.783468,167.903676 C211.170468,205.413676 275.899468,252.632676 318.491468,268.498676 C361.082468,284.364676 351.290468,263.427676 341.769468,233.434676 C332.248468,203.440676 286.814468,181.357676 278.474468,166.713676 C270.133468,152.070676 292.754468,156.796676 316.717468,174.473676 C340.666468,192.149676 337.517468,225.187676 375.743468,254.485676 C413.970468,283.784676 492.775468,226.690676 492.775468,226.690676 C459.255468,217.848676 418.612468,170.870676 422.727468,159.985676 C426.849468,149.093676 500.773468,196.680676 514.198468,201.038676 C527.644468,205.404676 562.494468,194.890676 578.972468,140.563676 L578.972468,140.563676 Z" id="Path" fill="url(#linearGradient-1)" fill-rule="nonzero"></path>
            <path d="M108.291468,91.9436762 C108.291468,71.1766762 125.126468,54.3416762 145.894468,54.3416762 L442.535468,54.3416762 C463.302468,54.3416762 480.137468,71.1766762 480.137468,91.9436762 L480.137468,322.780676 C480.137468,343.548676 463.302468,360.383676 442.535468,360.383676 L145.894468,360.383676 C125.126468,360.383676 108.291468,343.548676 108.291468,322.780676 L108.291468,91.9436762 Z" id="Path" fill="#3988C4" fill-rule="nonzero"></path>
            <circle id="Oval" fill="#FFFFFF" fill-rule="nonzero" cx="151.638468" cy="85.1546762" r="7.834"></circle>
            <circle id="Oval" fill="#FFFFFF" fill-rule="nonzero" cx="178.796468" cy="85.1546762" r="7.834"></circle>
            <circle id="Oval" fill="#FFFFFF" fill-rule="nonzero" cx="205.953468" cy="85.1546762" r="7.834"></circle>
            <rect id="Rectangle" fill="#FFFFFF" fill-rule="nonzero" x="143.805468" y="262.199676" width="253.816" height="16.712" rx="8.356"></rect>
            <rect id="Rectangle" fill="#FFFFFF" fill-rule="nonzero" x="143.805468" y="213.107676" width="236.06" height="17.757" rx="8.878"></rect>
            <rect id="Rectangle" fill="#FFFFFF" fill-rule="nonzero" x="143.805468" y="162.970676" width="265.306" height="16.712" rx="8.356"></rect>
            <path d="M44.0314681,414.625676 C43.2084681,412.394676 57.5664681,355.051676 59.4844681,353.119676 C61.4074681,351.196676 123.358468,350.003676 123.358468,350.003676 C123.358468,350.003676 151.273468,323.693676 174.355468,310.957676 C183.458468,305.926676 195.603468,302.909676 197.147468,307.520676 C198.106468,310.377676 193.888468,315.904676 188.525468,321.474676 C188.513468,321.492676 188.494468,321.508676 188.476468,321.524676 C181.010468,329.271676 171.370468,337.066676 170.463468,337.798676 C170.412468,337.833676 170.393468,337.849676 170.393468,337.849676 C170.393468,337.849676 221.321468,338.587676 228.857468,339.219676 C236.397468,339.838676 246.337468,340.272676 246.534468,345.497676 C246.719468,350.298676 233.181468,352.234676 232.376468,352.348676 C233.216468,352.341676 250.936468,352.233676 251.729468,359.068676 C252.317468,364.152676 232.916468,368.273676 232.343468,368.386676 C232.800468,368.390676 241.506468,368.438676 241.336468,372.513676 C241.054468,379.213676 221.394468,381.752676 220.591468,381.859676 C221.018468,381.869676 228.010468,382.088676 227.535468,385.752676 C226.357468,394.826676 158.939468,402.788676 138.495468,404.633676 C118.032468,406.466676 44.8614681,416.859676 44.0314681,414.625676 Z" id="Path" fill="#F8AE9D" fill-rule="nonzero"></path>
            <polygon id="Path" fill="url(#linearGradient-2)" fill-rule="nonzero" points="513.562468 291.445676 583.544468 291.445676 583.544468 360.383676 513.562468 360.383676"></polygon>
            <rect id="Rectangle" fill="#3988C4" fill-rule="nonzero" x="531.319468" y="273.688676" width="69.982" height="68.938" rx="10.445"></rect>
            <rect id="Rectangle" fill="#3988C4" fill-rule="nonzero" transform="translate(566.148468, 92.557208) rotate(45.000000) translate(-566.148468, -92.557208) " x="548.972468" y="75.3812083" width="34.352" height="34.352" rx="10.445"></rect>
            <circle id="Oval" fill="#E1E4E5" fill-rule="nonzero" transform="translate(521.396468, 124.845676) scale(-1, 1) rotate(-180.000000) translate(-521.396468, -124.845676) " cx="521.396468" cy="124.845676" r="7.834"></circle>
            <path d="M67.4424681,309.800676 C67.4424681,309.800676 81.1294681,246.356676 62.4944681,199.325676 C60.0194681,193.076676 51.0404681,193.444676 48.9844681,199.859676 C48.9504681,199.965676 48.9144681,200.075676 48.8814681,200.187676 C45.5544681,211.197676 64.6524681,268.994676 67.4424681,309.800676 L67.4424681,309.800676 Z M60.6764681,328.547676 C60.6764681,328.547676 55.8294681,241.736676 14.4154681,189.903676 C11.8914681,186.743676 7.25946811,185.993676 4.00446811,188.414676 C1.88746811,189.993676 0.14746811,192.993676 0.00246811047,198.559676 C-0.37753189,213.409676 43.2234681,278.743676 60.6764681,328.547676 Z" id="Shape" fill="#3988C4" fill-rule="nonzero"></path>
            <path d="M36.7424681,171.326676 L23.6864681,158.792676 L36.7424681,146.258676 L49.7994681,158.792676 L36.7424681,171.326676 Z M528.707468,252.798676 L515.651468,239.742676 L528.707468,226.685676 L541.764468,239.742676 L528.707468,252.798676 Z" id="Shape" stroke="#E1E4E5" stroke-width="5.313" stroke-linecap="round" stroke-linejoin="round"></path>
            <path d="M179.751468,17.0956762 C175.403468,23.4246762 178.459468,33.0806762 178.459468,33.0806762 C178.459468,33.0806762 188.563468,32.4706762 192.907468,26.1376762 C197.255468,19.8096762 194.203468,10.1566762 194.203468,10.1566762 C194.203468,10.1566762 184.099468,10.7676762 179.751468,17.0956762 Z" id="Path" fill="#E1E4E5" fill-rule="nonzero"></path>
            <path d="M629.029468,226.174676 C608.404468,247.167676 569.836468,242.741676 569.836468,242.741676 C569.836468,242.741676 564.732468,204.279676 585.376468,183.300676 C606.001468,162.308676 644.551468,166.721676 644.551468,166.721676 C644.551468,166.721676 649.655468,205.182676 629.029468,226.174676 L629.029468,226.174676 Z" id="Path" fill="url(#linearGradient-3)" fill-rule="nonzero"></path>
            <path d="M514.129468,24.4646762 C507.874468,30.8316762 496.176468,29.4886762 496.176468,29.4886762 C496.176468,29.4886762 494.628468,17.8236762 500.889468,11.4596762 C507.145468,5.09267616 518.837468,6.43167616 518.837468,6.43167616 C518.837468,6.43167616 520.385468,18.0976762 514.129468,24.4646762 Z" id="Path" fill="url(#linearGradient-4)" fill-rule="nonzero"></path>
            <path d="M84.7094681,104.164676 C93.8894681,120.381676 89.5334681,144.955676 89.5334681,144.955676 C89.5334681,144.955676 63.2634681,137.728676 54.0824681,121.510676 C44.9024681,105.293676 44.3154681,88.2706762 52.7664681,83.4766762 C61.2304681,78.6786762 75.5294681,87.9476762 84.7094681,104.164676 L84.7094681,104.164676 Z" id="Path" fill="url(#linearGradient-5)" fill-rule="nonzero"></path>
            <path d="M555.990468,158.792676 L555.739468,158.792676 C554.256468,179.808676 538.630468,180.131676 538.630468,180.131676 C538.630468,180.131676 555.861468,180.468676 555.861468,204.751676 C555.861468,180.468676 573.093468,180.131676 573.093468,180.131676 C573.093468,180.131676 557.473468,179.808676 555.990468,158.792676 Z" id="Path" fill="#E1E4E5" fill-rule="nonzero"></path>
        </g>
    </g>
</svg>