<?xml version="1.0" encoding="UTF-8"?>
<svg width="579px" height="414px" viewBox="0 0 579 414" version="1.1" xmlns="http://www.w3.org/2000/svg" xmlns:xlink="http://www.w3.org/1999/xlink">
    <title>175</title>
    <defs>
        <linearGradient x1="-47.1567607%" y1="76.8453779%" x2="194.527759%" y2="8.67147716%" id="linearGradient-1">
            <stop stop-color="#FFFFFF" offset="0%"></stop>
            <stop stop-color="#EEEEEE" offset="100%"></stop>
        </linearGradient>
        <linearGradient x1="137.757536%" y1="120.940092%" x2="-79.5551012%" y2="-57.5198259%" id="linearGradient-2">
            <stop stop-color="#FFFFFF" offset="0%"></stop>
            <stop stop-color="#EEEEEE" offset="100%"></stop>
        </linearGradient>
        <linearGradient x1="-27.7335498%" y1="171.290941%" x2="163.991534%" y2="-133.073214%" id="linearGradient-3">
            <stop stop-color="#FFFFFF" offset="0%"></stop>
            <stop stop-color="#EEEEEE" offset="100%"></stop>
        </linearGradient>
    </defs>
    <g id="Page-1" stroke="none" stroke-width="1" fill="none" fill-rule="evenodd">
        <g id="175" transform="translate(0.000000, 0.626000)">
            <path d="M189.656,90.378 L450.166,90.378 C455.871,90.378 459.743,96.179 457.554,101.447 L424.499,181.016 C423.682993,182.980638 423.682993,185.189362 424.499,187.154 L457.554,266.723 C459.743,271.991 455.871,277.792 450.166,277.792 L189.656,277.792" id="Path" fill="#3988C4"></path>
            <path d="M226.832,401.201 L153.629,401.201 M190.231,401.201 L190.231,90.091" id="Shape" stroke="#2E4251" stroke-width="23.875" stroke-linecap="round" stroke-linejoin="round"></path>
            <path d="M552.866,272.579 C539.335,275.785 525.023,264.309 525.023,264.309 C525.023,264.309 532.66,247.643 546.196,244.447 C559.727,241.241 574.034,252.707 574.034,252.707 C574.034,252.707 566.397,269.374 552.866,272.579 Z" id="Path" fill="url(#linearGradient-1)" fill-rule="nonzero"></path>
            <path d="M83.407,79.223 C101.228,91.498 128.454,82.918 128.454,82.918 C128.454,82.918 126.768,54.438 108.935,42.175 C91.114,29.9 63.9,38.469 63.9,38.469 C63.9,38.469 65.586,66.948 83.407,79.223 Z" id="Path" fill="url(#linearGradient-2)" fill-rule="nonzero"></path>
            <path d="M530.601,89.027 C518.308,101.539 495.321,98.901 495.321,98.901 C495.321,98.901 492.279,75.977 504.583,63.473 C516.876,50.962 539.852,53.592 539.852,53.592 C539.852,53.592 542.894,76.516 530.601,89.027 L530.601,89.027 Z" id="Path" fill="url(#linearGradient-3)" fill-rule="nonzero"></path>
            <circle id="Oval" fill="#3988C4" fill-rule="nonzero" transform="translate(96.711000, 362.212000) rotate(180.000000) translate(-96.711000, -362.212000) " cx="96.711" cy="362.212" r="10.561"></circle>
            <ellipse id="Oval" fill="#3988C4" fill-rule="nonzero" transform="translate(369.217000, 333.743000) rotate(180.000000) translate(-369.217000, -333.743000) " cx="369.217" cy="333.743" rx="11.694" ry="11.11"></ellipse>
            <circle id="Oval" fill="#3988C4" fill-rule="nonzero" transform="translate(63.500000, 148.874000) scale(-1, 1) translate(-63.500000, -148.874000) " cx="63.5" cy="148.874" r="10.5"></circle>
            <ellipse id="Oval" fill="#E1E4E5" fill-rule="nonzero" transform="translate(310.525000, 60.036000) scale(-1, 1) translate(-310.525000, -60.036000) " cx="310.525" cy="60.036" rx="10.525" ry="9.94"></ellipse>
            <circle id="Oval" fill="#E1E4E5" fill-rule="nonzero" transform="translate(268.449000, 316.545000) scale(-1, 1) translate(-268.449000, -316.545000) " cx="268.449" cy="316.545" r="8.449"></circle>
            <circle id="Oval" fill="#E1E4E5" fill-rule="nonzero" transform="translate(367.094000, 401.706000) scale(-1, 1) translate(-367.094000, -401.706000) " cx="367.094" cy="401.706" r="5.046"></circle>
            <circle id="Oval" fill="#E1E4E5" fill-rule="nonzero" transform="translate(365.048000, 13.522000) scale(-1, 1) translate(-365.048000, -13.522000) " cx="365.048" cy="13.522" r="7.209"></circle>
            <circle id="Oval" fill="#E1E4E5" fill-rule="nonzero" transform="translate(292.627604, 356.722996) scale(-1, 1) rotate(105.000000) translate(-292.627604, -356.722996) " cx="292.627604" cy="356.722996" r="7.045"></circle>
            <circle id="Oval" fill="#E1E4E5" fill-rule="nonzero" transform="translate(50.372000, 225.746000) scale(-1, 1) translate(-50.372000, -225.746000) " cx="50.372" cy="225.746" r="9.372"></circle>
            <ellipse id="Oval" fill="#E1E4E5" fill-rule="nonzero" transform="translate(130.834000, 199.218000) scale(-1, 1) translate(-130.834000, -199.218000) " cx="130.834" cy="199.218" rx="7.209" ry="5.767"></ellipse>
            <circle id="Oval" fill="#E1E4E5" fill-rule="nonzero" transform="translate(457.956034, 327.050792) scale(-1, 1) rotate(105.000000) translate(-457.956034, -327.050792) " cx="457.956034" cy="327.050792" r="14.661"></circle>
            <path d="M92.879,255.096 L93.068,255.096 C94.185,270.919 105.952,271.162 105.952,271.162 C105.952,271.162 92.976,271.416 92.976,289.699 C92.976,271.416 80,271.162 80,271.162 C80,271.162 91.763,270.919 92.879,255.096 Z M195.761,2.84217094e-14 L195.945,2.84217094e-14 C197.036,16.098 208.529,16.346 208.529,16.346 C208.529,16.346 195.855,16.604 195.855,35.204 C195.855,16.604 183.182,16.346 183.182,16.346 C183.182,16.346 194.67,16.098 195.761,2.84217094e-14 L195.761,2.84217094e-14 Z M12.579,273.096 L12.763,273.096 C13.854,289.194 25.347,289.441 25.347,289.441 C25.347,289.441 12.674,289.699 12.674,308.3 C12.674,289.699 0,289.441 0,289.441 C0,289.441 11.488,289.194 12.579,273.096 Z M480.894,156.77 L481.078,156.77 C482.169,172.868 493.662,173.116 493.662,173.116 C493.662,173.116 480.988,173.374 480.988,191.974 C480.988,173.374 468.315,173.116 468.315,173.116 C468.315,173.116 479.803,172.868 480.894,156.77 L480.894,156.77 Z M568.489,177.096 L568.626,177.096 C569.441,189.124 578.029,189.309 578.029,189.309 C578.029,189.309 568.559,189.501 568.559,203.399 C568.559,189.501 559.09,189.309 559.09,189.309 C559.09,189.309 567.674,189.124 568.489,177.096 L568.489,177.096 Z" id="Shape" fill="#E1E4E5" fill-rule="nonzero"></path>
        </g>
    </g>
</svg>