<svg xmlns="http://www.w3.org/2000/svg"  viewBox="0 0 100 100" width="200px" height="200px"><path d="M50.5,96c-3.584,0-6.5-2.916-6.5-6.5V76H16.5c-3.584,0-6.5-2.916-6.5-6.5 V39c0-11.579,9.42-21,21-21h42c11.58,0,21,9.421,21,21v30.5c0,3.584-2.916,6.5-6.5,6.5H66v13.5c0,3.584-2.916,6.5-6.5,6.5H50.5z" opacity=".35"/><path fill="#f2f2f2" d="M48.5,94c-3.584,0-6.5-2.916-6.5-6.5V74H14.5C10.916,74,8,71.084,8,67.5V37c0-11.579,9.42-21,21-21 h42c11.58,0,21,9.421,21,21v30.5c0,3.584-2.916,6.5-6.5,6.5H64v13.5c0,3.584-2.916,6.5-6.5,6.5H48.5z"/><path fill="#2785bd" d="M84.8,67.8H29.24V24.08h41.737c7.634,0,13.823,6.189,13.823,13.823L84.8,67.8z"/><rect width="8.106" height="20.661" x="48.894" y="66" fill="#ffc571"/><path fill="#40396e" d="M51,32.5c0-0.829,0.671-1.5,1.5-1.5h23c0.829,0,1.5,0.671,1.5,1.5c0,0.829-0.671,1.5-1.5,1.5h-23 C51.671,34,51,33.329,51,32.5z"/><path fill="#70bfff" d="M43,67.5H14.054V38.473C14.054,30.48,20.534,24,28.527,24l0,0C36.52,24,43,30.48,43,38.473V67.5z"/><rect width="9" height="13" x="68" y="33" fill="#f4665c"/><path fill="#40396e" d="M66,45.5v-13c0-0.829,0.671-1.5,1.5-1.5h9c0.829,0,1.5,0.671,1.5,1.5v13c0,0.829-0.671,1.5-1.5,1.5 h-9C66.671,47,66,46.329,66,45.5z M69,34v10h6V34H69z"/><path fill="#40396e" d="M57.5,89h-9c-0.829,0-1.5-0.671-1.5-1.5V69H14.5c-0.829,0-1.5-0.671-1.5-1.5V37 c0-8.822,7.178-16,16-16h42c8.822,0,16,7.178,16,16v30.5c0,0.829-0.671,1.5-1.5,1.5H59v18.5C59,88.329,58.329,89,57.5,89z M50,86h6 V67.5c0-0.829,0.671-1.5,1.5-1.5H84V37c0-7.168-5.832-13-13-13H29c-7.168,0-13,5.832-13,13v29h32.5c0.829,0,1.5,0.671,1.5,1.5V86z"/><path fill="#d9eeff" d="M36.5,43h-14c-0.828,0-1.5-0.672-1.5-1.5l0,0c0-0.828,0.672-1.5,1.5-1.5h14 c0.828,0,1.5,0.672,1.5,1.5l0,0C38,42.328,37.328,43,36.5,43z"/></svg>