<?xml version="1.0" encoding="UTF-8"?>
<svg width="624px" height="414px" viewBox="0 0 624 414" version="1.1" xmlns="http://www.w3.org/2000/svg" xmlns:xlink="http://www.w3.org/1999/xlink">
    <title>9</title>
    <defs>
        <linearGradient x1="5.81450923%" y1="97.97851%" x2="117.377357%" y2="-12.187729%" id="linearGradient-1">
            <stop stop-color="#FFFFFF" offset="0%"></stop>
            <stop stop-color="#EEEEEE" offset="100%"></stop>
        </linearGradient>
        <linearGradient x1="-38.9070568%" y1="113.776383%" x2="181.386772%" y2="-46.7593946%" id="linearGradient-2">
            <stop stop-color="#FFFFFF" offset="0%"></stop>
            <stop stop-color="#EEEEEE" offset="100%"></stop>
        </linearGradient>
    </defs>
    <g id="Page-1" stroke="none" stroke-width="1" fill="none" fill-rule="evenodd">
        <g id="9" transform="translate(-0.000133, 0.950000)">
            <path d="M461.956133,221.613 C438.052133,205.69 409.802133,201.394 383.892133,207.373 C390.574133,182.278 380.997133,154.635 358.174133,139.433 C329.499133,120.333 290.774133,128.075 271.691133,156.724 C267.781701,162.596034 264.894261,169.087363 263.151133,175.923 C204.608133,139.063 127.031133,155.357 88.4861326,213.226 C49.3161326,272.032 65.2791326,351.48 124.141133,390.687 C183.003133,429.894 262.467133,414.008 301.636133,355.202 C305.488863,349.408302 308.871665,343.315512 311.752133,336.982 C318.609133,357.194 331.934133,375.382 351.083133,388.137 C397.110133,418.795 459.251133,406.372 489.880133,360.388 C520.508133,314.405 507.983133,252.271 461.956133,221.613 Z M320.519133,253.567 C320.218133,254.054 319.942133,254.536 319.657133,255.034 C319.540133,254.52 319.407133,253.996 319.290133,253.482 C319.698133,253.525 320.106133,253.567 320.519133,253.567 L320.519133,253.567 Z" id="Shape" fill="url(#linearGradient-1)" fill-rule="nonzero"></path>
            <path d="M473.330133,171.057 C450.875133,185.283 417.861133,173.463 417.861133,173.463 C417.861133,173.463 421.276133,138.585 443.746133,124.375 C466.201133,110.15 499.201133,121.954 499.201133,121.954 C499.201133,121.954 495.786133,156.832 473.330133,171.057 Z" id="Path" fill="url(#linearGradient-2)" fill-rule="nonzero"></path>
            <path d="M418.159133,400.85 C417.28767,400.505928 416.827115,399.549751 417.101328,398.653849 C417.375541,397.757947 418.292382,397.223357 419.207133,397.426 C423.555236,398.422223 427.930653,399.295239 432.328133,400.044 C432.796648,400.124607 433.213894,400.38818 433.487938,400.776643 C433.761983,401.165107 433.870339,401.646588 433.789133,402.115 C433.619151,403.089323 432.69453,403.743705 431.719133,403.58 C427.254102,402.818382 422.81106,401.933041 418.395133,400.925 C418.316133,400.902 418.236133,400.88 418.159133,400.85 L418.159133,400.85 Z M444.709133,405.432 C443.86688,405.104866 443.399072,404.20267 443.617022,403.325799 C443.834971,402.448927 444.670733,401.870738 445.568133,401.976 C450.010133,402.505 454.485133,402.926 458.877133,403.227 C459.86264,403.296978 460.607058,404.149018 460.544133,405.135 C460.477832,406.123031 459.624317,406.870975 458.636133,406.807 C454.179133,406.506 449.643133,406.077 445.141133,405.541 C444.993868,405.519113 444.849152,405.4826 444.709133,405.432 L444.709133,405.432 Z M471.557133,407.226 C470.749465,406.911949 470.281987,406.065207 470.446549,405.214398 C470.61111,404.36359 471.360611,403.752232 472.227133,403.762 C476.677422,403.819414 481.128432,403.743046 485.574133,403.533 C486.048807,403.510199 486.51303,403.6773 486.864275,403.997398 C487.215519,404.317496 487.424886,404.764254 487.446133,405.239 C487.492133,406.229 486.729133,407.069 485.740133,407.117 C481.310133,407.332 476.749133,407.408 472.178133,407.344 C471.965362,407.346168 471.754279,407.306059 471.557133,407.226 L471.557133,407.226 Z M498.421133,405.925 C497.79605,405.686083 497.357377,405.117275 497.285133,404.452 C497.231159,403.979732 497.36714,403.50538 497.663122,403.133433 C497.959104,402.761486 498.390806,402.522457 498.863133,402.469 C503.344133,401.953 507.773133,401.279 512.030133,400.468 C512.497251,400.376871 512.981408,400.4766 513.374487,400.744916 C513.767565,401.013231 514.036823,401.427784 514.122133,401.896 C514.308933,402.868267 513.672347,403.807925 512.700133,403.995 C508.249267,404.842382 503.768525,405.524517 499.267133,406.04 C498.9801,406.06463 498.691176,406.025356 498.421133,405.925 L498.421133,405.925 Z M524.812133,400.833 C524.280519,400.631744 523.877727,400.187668 523.729133,399.639 C523.465403,398.682745 524.024111,397.693161 524.979133,397.425 C529.243095,396.232673 533.448725,394.840808 537.582133,393.254 C538.506607,392.901288 539.54222,393.362753 539.898133,394.286 C540.250133,395.209 539.788133,396.246 538.864133,396.607 C534.626276,398.234373 530.313787,399.660301 525.941133,400.88 C525.56979,400.988256 525.173192,400.971745 524.812133,400.833 L524.812133,400.833 Z M549.844133,391.146 C549.429265,390.988378 549.089003,390.68025 548.891133,390.283 C548.44251,389.398508 548.795732,388.317803 549.680133,387.869 C553.610156,385.863189 557.424489,383.638356 561.105133,381.205 C561.50146,380.941908 561.986093,380.847095 562.452347,380.941434 C562.918602,381.035773 563.328257,381.311529 563.591133,381.708 C564.137253,382.53544 563.91147,383.648707 563.086133,384.198 C559.292449,386.708879 555.360208,389.003854 551.308133,391.072 C550.851354,391.298024 550.321374,391.324812 549.844133,391.146 L549.844133,391.146 Z M572.167133,376.306 C571.577397,376.077154 571.151772,375.554635 571.046944,374.930799 C570.942117,374.306964 571.173583,373.67403 571.656133,373.265 C575.007656,370.40697 578.183129,367.348712 581.165133,364.107 C581.598496,363.635409 582.25053,363.430838 582.875621,363.570346 C583.500712,363.709855 584.003894,364.172248 584.195621,364.783346 C584.387349,365.394445 584.238496,366.061409 583.805133,366.533 C580.725351,369.884629 577.443564,373.044856 573.978133,375.996 C573.448133,376.436 572.754133,376.531 572.167133,376.306 L572.167133,376.306 Z M590.309133,356.593 C589.790004,356.393539 589.392901,355.96436 589.234285,355.43133 C589.075668,354.898301 589.173516,354.321837 589.499133,353.871 C592.073149,350.292446 594.446469,346.573721 596.608133,342.732 C596.839938,342.316048 597.228579,342.010173 597.687357,341.88261 C598.146136,341.755046 598.636885,341.816405 599.050133,342.053 C599.465111,342.287008 599.770112,342.676307 599.898017,343.135227 C600.025922,343.594147 599.96625,344.085083 599.732133,344.5 C597.504387,348.460006 595.057936,352.292935 592.404133,355.981 C591.920155,356.628989 591.065823,356.878561 590.309133,356.593 L590.309133,356.593 Z M603.661133,333.308 L603.542133,333.262 C603.110659,333.061783 602.776618,332.698065 602.613762,332.251149 C602.450905,331.804232 602.472628,331.310874 602.674133,330.88 C604.540301,326.861124 606.22893,322.762169 607.735133,318.595 C607.940307,317.978177 608.463593,317.520951 609.102363,317.400371 C609.741133,317.27979 610.39509,317.514788 610.811007,318.014367 C611.226925,318.513947 611.339496,319.199666 611.105133,319.806 C610.766133,320.753 610.403133,321.722 610.035133,322.682 C608.771266,325.96509 607.398507,329.205216 605.919133,332.397 C605.518229,333.242007 604.536186,333.638217 603.661133,333.308 L603.661133,333.308 Z M612.643133,307.986 C611.805803,307.660366 611.3368,306.767169 611.544133,305.893 C612.600133,301.484 613.356133,297.104 613.788133,292.882 C613.888048,291.897972 614.765941,291.180714 615.750133,291.279 C616.222942,291.328139 616.656789,291.563326 616.956001,291.932699 C617.255213,292.302071 617.395215,292.775289 617.345133,293.248 C616.892133,297.632 616.110133,302.162 615.019133,306.727 C614.788452,307.689835 613.821021,308.283455 612.858133,308.053 C612.793133,308.035 612.713133,308.013 612.643133,307.986 L612.643133,307.986 Z M615.269133,281.314 C614.612328,281.058973 614.164556,280.44436 614.123133,279.741 C613.868133,275.28 613.220133,270.924 612.186133,266.799 C611.943942,265.838615 612.525868,264.863666 613.486133,264.621 C613.946593,264.504223 614.4346,264.575589 614.842337,264.819331 C615.250075,265.063073 615.543985,265.45913 615.659133,265.92 C616.747133,270.259 617.431133,274.837 617.702133,279.529 C617.729434,280.003899 617.566904,280.470183 617.250319,280.825215 C616.933734,281.180248 616.489044,281.394928 616.014133,281.422 C615.750133,281.442 615.500133,281.402 615.269133,281.314 L615.269133,281.314 Z M561.144133,258.336 C560.261846,257.996706 559.796096,257.029279 560.081133,256.128 C560.376361,255.181687 561.382796,254.653846 562.329133,254.949 C566.295133,256.195 570.688133,256.85 575.031133,256.843 C576.006251,256.867333 576.783687,257.665521 576.78233,258.640942 C576.78097,259.616363 576.001315,260.412383 575.026133,260.434037 C570.323133,260.44 565.561133,259.723 561.248133,258.376 C561.216133,258.356 561.172133,258.347 561.144133,258.336 L561.144133,258.336 Z M549.464133,251.915 C549.251664,251.831678 549.056142,251.710367 548.887133,251.557 C544.485133,247.451 542.767133,242.557 544.060133,237.781 C544.318185,236.826989 545.299205,236.26136 546.254133,236.516 C546.713029,236.640649 547.103467,236.942772 547.339292,237.3557 C547.575117,237.768628 547.636945,238.258421 547.511133,238.717 C546.323133,243.116 548.927133,246.702 551.319133,248.937 C551.945851,249.5195 552.071735,250.464503 551.619355,251.19075 C551.166975,251.916997 550.263285,252.220676 549.464133,251.915 L549.464133,251.915 Z M587.618133,258.3 C587.104368,258.104817 586.709492,257.68337 586.548133,257.158 C586.255494,256.212591 586.780064,255.208095 587.723133,254.908 C591.823951,253.624793 595.688746,251.683107 599.166133,249.159 C599.550333,248.87867 600.030388,248.762961 600.500115,248.837464 C600.969843,248.911967 601.390532,249.170544 601.669133,249.556 C601.948678,249.941357 602.063688,250.421981 601.988861,250.892137 C601.914033,251.362293 601.655498,251.783466 601.270133,252.063 C597.479997,254.817728 593.265573,256.935243 588.793133,258.332 C588.398133,258.462 587.982133,258.439 587.618133,258.3 L587.618133,258.3 Z M608.671133,255.438 C608.251346,255.277172 607.907289,254.964522 607.707133,254.562 C605.78688,250.666085 603.413459,247.010459 600.636133,243.671 C600.331383,243.306026 600.184365,242.8348 600.227514,242.361285 C600.270663,241.88777 600.500433,241.450879 600.866133,241.147 C601.230268,240.842781 601.700344,240.695682 602.172941,240.738066 C602.645538,240.78045 603.081938,241.008844 603.386133,241.373 C606.340393,244.931711 608.867614,248.824236 610.916133,252.971 C611.355133,253.855 610.996133,254.939 610.106133,255.377 C609.636133,255.599 609.119133,255.61 608.671133,255.438 L608.671133,255.438 Z M553.702133,229.951 C553.060023,229.701084 552.616923,229.106542 552.560953,228.419789 C552.504982,227.733036 552.845964,227.074591 553.439133,226.724 C557.415133,224.406 562.033133,223.178 567.164133,223.079 C567.639121,223.069904 568.098181,223.25032 568.439877,223.580382 C568.781573,223.910444 568.977776,224.362981 568.985133,224.838 C568.993966,225.313291 568.813587,225.772617 568.483693,226.114888 C568.153799,226.45716 567.701427,226.654328 567.226133,226.663 C562.717133,226.751 558.686133,227.81 555.245133,229.819 C554.77803,230.096591 554.209597,230.145219 553.702133,229.951 L553.702133,229.951 Z M609.029133,242.805 C608.881378,242.746148 608.740806,242.670661 608.610133,242.58 C608.225364,242.298623 607.968477,241.875613 607.896234,241.404444 C607.823992,240.933274 607.942342,240.452731 608.225133,240.069 C610.665133,236.737 612.757133,232.909 614.435133,228.698 C614.799388,227.78842 615.824852,227.337945 616.741133,227.685 L616.762133,227.693 C617.681093,228.060319 618.128671,229.102728 617.762133,230.022 C615.967133,234.517 613.732133,238.612 611.110133,242.188 C610.634502,242.838746 609.782598,243.091328 609.029133,242.805 L609.029133,242.805 Z M591.573133,235.046 C591.429898,234.98896 591.293946,234.91511 591.168133,234.826 C587.571133,232.242 583.721133,230.212 579.771133,228.819 C578.838427,228.486962 578.351364,227.461801 578.683133,226.529 C578.840908,226.080175 579.170958,225.712678 579.600313,225.507759 C580.029668,225.30284 580.522961,225.277377 580.971133,225.437 C585.238133,226.944 589.396133,229.132 593.262133,231.916 C594.066133,232.497 594.249133,233.612 593.674133,234.42 C593.184133,235.092 592.315133,235.33 591.573133,235.046 L591.573133,235.046 Z M619.188133,218.119 C618.37626,217.80601 617.90706,216.95453 618.076133,216.101 C618.871133,212.018 619.408133,207.603 619.667133,202.992 C619.724632,202.003112 620.569926,201.246279 621.559133,201.298 C622.54773,201.35546 623.303284,202.202271 623.248133,203.191 C622.982133,207.968 622.426133,212.537 621.593133,216.782 C621.405117,217.754416 620.464649,218.390497 619.492133,218.203 C619.388106,218.185863 619.286199,218.157705 619.188133,218.119 L619.188133,218.119 Z M620.850133,191.326 C620.186656,191.070284 619.736512,190.447218 619.702133,189.737 C619.494465,185.303521 619.110829,180.880036 618.552133,176.477 C618.431706,175.494383 619.125642,174.59829 620.107133,174.469 C621.08921,174.348157 621.984361,175.043542 622.110133,176.025 C622.688133,180.69 623.086133,185.239 623.281133,189.565 C623.308643,190.169075 623.030321,190.746441 622.540607,191.101186 C622.050894,191.455931 621.415539,191.540426 620.850133,191.326 L620.850133,191.326 Z M617.323133,164.698 C616.773054,164.488076 616.361385,164.021069 616.222133,163.449 C615.166481,159.174057 613.838095,154.97112 612.245133,150.866 C611.884537,149.942029 612.341192,148.900675 613.265133,148.54 C613.707685,148.366103 614.201295,148.375751 614.636714,148.56681 C615.072133,148.757869 615.413454,149.114582 615.585133,149.558 C617.235735,153.808894 618.611241,158.161544 619.703133,162.589 C619.861174,163.236717 619.647825,163.918708 619.148831,164.360884 C618.649837,164.80306 617.947133,164.932814 617.323133,164.698 L617.323133,164.698 Z M607.649133,139.71 C607.248471,139.556263 606.916561,139.263401 606.714133,138.885 C604.617754,135.001933 602.305463,131.23937 599.788133,127.615 C599.516334,127.224575 599.411128,126.742016 599.495748,126.273886 C599.580367,125.805756 599.847852,125.390565 600.239133,125.12 C601.049133,124.554 602.169133,124.75 602.730133,125.568 C605.326537,129.302346 607.709675,133.180537 609.868133,137.184 C610.094376,137.602722 610.144552,138.094305 610.007569,138.550101 C609.870586,139.005897 609.557725,139.388375 609.138133,139.613 C608.679922,139.861716 608.135739,139.897166 607.649133,139.71 L607.649133,139.71 Z M334.428133,19.969 C333.738944,19.7047261 333.282129,19.0451036 333.277097,18.307 C333.271,17.317904 334.064105,16.5091692 335.053133,16.496 C338.939133,16.466 343.499133,16.623 348.622133,16.963 C349.096262,16.9948142 349.538313,17.2137476 349.850966,17.5716011 C350.163619,17.9294547 350.321242,18.3968903 350.289133,18.871 C350.222299,19.8587674 349.369126,20.606412 348.381133,20.543 C343.350133,20.214 338.870133,20.057 335.079133,20.091 C334.85642,20.091325 334.635615,20.0499453 334.428133,19.969 Z M592.391133,117.636 C592.112482,117.529485 591.865191,117.354421 591.672133,117.127 C588.792015,113.765239 585.765076,110.5321 582.600133,107.437 C582.260581,107.104747 582.067214,106.651024 582.06263,106.17598 C582.058208,105.700936 582.24294,105.24363 582.576133,104.905 C582.906932,104.564357 583.360001,104.369824 583.834804,104.364458 C584.309607,104.35931 584.766873,104.543765 585.105133,104.877 C588.342725,108.04812 591.442263,111.357185 594.395133,114.795 C594.927602,115.418623 594.969449,116.323912 594.49678,116.993997 C594.024112,117.664082 593.157254,117.928384 592.391133,117.636 L592.391133,117.636 Z M361.257133,21.604 C360.498016,21.3122172 360.031003,20.5453631 360.120133,19.737 C360.169185,19.2637756 360.405122,18.8297139 360.775564,18.531183 C361.146005,18.232652 361.620294,18.0943565 362.093133,18.147 C366.400133,18.608 370.904133,19.161 375.487133,19.8 C375.958119,19.8657036 376.383676,20.1159208 376.670083,20.4955468 C376.956491,20.8751728 377.08026,21.3530729 377.014133,21.824 C376.949368,22.2955829 376.699739,22.7220579 376.320264,23.0094312 C375.940789,23.2968045 375.462616,23.4214873 374.991133,23.356 C370.57009,22.742177 366.139903,22.1961129 361.702133,21.718 C361.549645,21.6986046 361.400163,21.6603105 361.257133,21.604 L361.257133,21.604 Z M573.258133,98.81 C573.072364,98.7389826 572.899681,98.6376031 572.747133,98.51 C569.344511,95.6588368 565.849299,92.9200314 562.267133,90.298 C561.469688,89.7129782 561.296133,88.5929244 561.879133,87.794 C562.461438,86.9957193 563.58044,86.8202598 564.379133,87.402 C568.027817,90.0697753 571.587422,92.8572939 575.052133,95.76 C575.723403,96.3231193 575.889704,97.288748 575.44548,98.0439781 C575.001256,98.7992082 574.076481,99.1230698 573.258133,98.81 L573.258133,98.81 Z M387.886133,25.267 C387.026968,24.9374693 386.556736,24.0110449 386.797894,23.1230151 C387.039052,22.2349854 387.913302,21.6736757 388.821133,21.824 C393.197133,22.545 397.664133,23.341 402.096133,24.187 C403.067218,24.3756691 403.704065,25.3126305 403.522133,26.285 C403.335317,27.2573267 402.398649,27.8965119 401.425133,27.716 C397.036841,26.8815394 392.638869,26.0988183 388.232133,25.368 C388.113945,25.3450211 387.998123,25.3112118 387.886133,25.267 L387.886133,25.267 Z M414.288133,30.298 C413.461025,29.9818746 412.990414,29.1074572 413.182133,28.243 C413.391772,27.2748127 414.345401,26.6588898 415.314133,26.866 C419.702133,27.808 424.122133,28.811 428.462133,29.856 C428.925651,29.9647327 429.326292,30.2546232 429.574525,30.6608903 C429.822757,31.0671574 429.89789,31.555936 429.783133,32.018 C429.552437,32.9803475 428.585689,33.5738238 427.623133,33.344 C423.279416,32.3023032 418.923791,31.3109035 414.557133,30.37 C414.464912,30.3568319 414.374601,30.3326596 414.288133,30.298 L414.288133,30.298 Z M551.611133,82.919 C551.49666,82.8737556 551.38654,82.8181934 551.282133,82.753 C547.543471,80.3430217 543.746332,78.024993 539.894133,75.801 C539.037881,75.3061457 538.743199,74.2119333 539.235133,73.354 C539.472092,72.9408757 539.863757,72.6390713 540.323634,72.5152367 C540.78351,72.3914021 541.273766,72.4557249 541.686133,72.694 C545.594494,74.9425182 549.444112,77.2916352 553.231133,79.739 C554.06174,80.2770707 554.300544,81.385676 553.765133,82.218 C553.299663,82.9269649 552.404707,83.2182205 551.611133,82.919 L551.611133,82.919 Z M440.423133,36.569 C439.568896,36.2378666 439.099671,35.3179256 439.333133,34.432 C439.586345,33.4760658 440.565714,32.9056248 441.522133,33.157 C445.866261,34.3083693 450.19561,35.5147996 454.509133,36.776 C455.447606,37.0651605 455.979835,38.0544602 455.703959,38.9969239 C455.428082,39.9393876 454.446399,40.4855372 453.500133,40.223 C449.214646,38.9735055 444.914337,37.7754194 440.600133,36.629 C440.544133,36.608 440.479133,36.591 440.423133,36.569 L440.423133,36.569 Z M528.345133,69.478 C528.281678,69.4548522 528.219579,69.4281431 528.159133,69.398 C524.201896,67.3508348 520.203401,65.3844275 516.166133,63.5 C515.734464,63.299016 515.40099,62.9338913 515.239863,62.4858169 C515.078737,62.0377424 515.103315,61.543863 515.308133,61.114 C515.508213,60.6819615 515.872603,60.3477607 516.320292,60.1856989 C516.767981,60.023637 517.261862,60.0471463 517.692133,60.251 C521.769833,62.1611035 525.810574,64.1491348 529.812133,66.214 C530.689905,66.6703598 531.032943,67.750907 530.579133,68.63 C530.158774,69.439991 529.197093,69.8050337 528.345133,69.478 L528.345133,69.478 Z M466.209133,44.105 C465.321665,43.7621999 464.855164,42.787106 465.145133,41.881 C465.44623,40.9393116 466.452762,40.4190464 467.395133,40.718 C471.675515,42.0916673 475.936913,43.5238012 480.178133,45.014 C481.10692,45.3523232 481.593851,46.3719875 481.273133,47.307 C480.946364,48.2411669 479.924825,48.7342619 478.990133,48.409 C474.780621,46.9260965 470.549495,45.5052758 466.298133,44.147 C466.272133,44.129 466.244133,44.119 466.209133,44.105 L466.209133,44.105 Z M504.014133,58.08 L503.951133,58.055 C499.845885,56.3121308 495.711287,54.6392221 491.549133,53.037 C490.625431,52.6782437 490.16612,51.6397624 490.522133,50.715 C490.691916,50.2719735 491.030998,49.9147081 491.46456,49.7220347 C491.898122,49.5293614 492.390529,49.5171158 492.833133,49.688 L492.840133,49.69 C497.038621,51.3089791 501.209546,52.998552 505.351133,54.758 C505.788297,54.9434726 506.133659,55.2953232 506.310964,55.7358638 C506.488268,56.1764044 506.482932,56.6694006 506.296133,57.106 C505.92194,57.9922846 504.912977,58.4229288 504.014133,58.08 L504.014133,58.08 Z" id="Shape" fill="#E1E4E5" fill-rule="nonzero"></path>
            <path d="M286.151133,111.07 C280.997133,104.938 268.782133,103.865 260.794133,111.783 C255.635133,116.898 254.788133,122.719 255.812133,126.779 C255.862133,126.979 255.907133,127.181 255.946133,127.385 L277.439133,239.73 C282.437133,262.624 300.622133,280.7 323.833133,285.678 L437.163133,306.986 L437.193133,306.992 L437.266133,307.006 C443.151133,308.173 449.428133,305.77 453.083133,302.146 C460.598133,294.696 460.598133,284.068 453.083133,276.619 L286.809133,111.783 C286.579133,111.555 286.359133,111.317 286.151133,111.07 Z M234.968133,115.509 L152.626133,197.851 C133.463133,217.014 133.463133,246.265 152.626133,265.428 L282.508133,395.31 C286.686133,399.489 293.460133,399.489 297.639133,395.31 C297.764133,395.185 297.885133,395.058 298.002133,394.929 L307.781133,404.602 L315.770133,398.689 L362.929133,402.456 L368.167133,396.637 C372.371133,400.27 378.730133,400.091 382.721133,396.1 L451.853133,326.968 C446.056133,328.745 439.654133,329.284 433.162133,328.007 L319.751133,306.685 C319.668589,306.669392 319.586248,306.652724 319.504133,306.635 C288.040133,299.951 263.265133,275.441 256.497133,244.131 C256.479075,244.047886 256.462074,243.964546 256.446133,243.881 L234.981133,131.681 C233.742133,126.546 233.693133,120.998 234.968133,115.509 Z" id="Shape" fill="#3988C4"></path>
            <polygon id="Path" fill="#FFFFFF" fill-rule="nonzero" points="311.042133 17.271 311.300133 29.397 245.926133 34.286 311.042133 17.271"></polygon>
            <polygon id="Path" fill="#3988C4" fill-rule="nonzero" points="309.908133 42.959 301.136133 51.585 248.865133 34.017"></polygon>
            <polygon id="Path" fill="#3988C4" fill-rule="nonzero" points="245.926133 34.286 340.501133 53.151 318.785133 27.605 245.926133 34.286"></polygon>
            <path d="M311.043133,17.272 L245.927133,34.287 L298.101133,-2.84217094e-14 L311.043133,17.272 L311.043133,17.272 Z M549.214133,407.129 C527.976133,407.525 522.355133,409.204 500.308133,408.513 C489.807133,408.611 478.598133,408.315 468.333133,408.118 C463.452133,406.833 454.869133,408.118 449.080133,407.031 L446.858133,407.722 C444.873133,407.327 442.550133,407.129 440.531133,407.525 L440.665133,407.722 C437.703133,407.228 434.338133,407.525 432.890133,407.228 L433.025133,407.426 L429.423133,407.327 L430.029133,407.623 C424.846133,407.031 419.528133,407.031 414.816133,407.228 L415.219133,406.339 C405.156133,407.327 401.487133,405.548 392.433133,406.635 L392.567133,406.833 C381.090133,404.56 374.459133,408.414 362.645133,406.24 C364.126133,406.537 362.005133,406.635 362.140133,406.932 C356.687133,406.734 350.898133,406.537 350.797133,404.857 C346.825133,404.857 347.566133,405.351 347.061133,406.043 C347.095133,405.351 343.628133,404.956 340.531133,404.956 L341.945133,405.252 L333.059133,404.956 L334.809133,403.572 C330.097133,403.968 333.598133,405.252 329.121133,404.956 L329.188133,403.77 C322.692133,403.968 318.855133,405.746 312.561133,406.635 C286.375133,407.129 258.236133,404.165 233.901133,406.24 L232.824133,407.129 C232.353133,408.414 226.092133,405.252 225.183133,406.438 L222.356133,405.845 C221.548133,406.042 219.865133,406.339 221.279133,406.635 C218.654133,406.734 218.586133,406.438 216.702133,406.141 L213.874133,406.932 C203.541133,407.525 194.756133,406.043 183.884133,406.339 C170.825133,407.92 146.221133,406.438 132.050133,405.647 C112.125133,403.77 88.9671326,408.809 68.5701326,406.635 C67.8971326,406.833 66.1811326,406.438 66.2141326,406.24 L47.5341326,406.438 C47.5341326,406.438 -42.9738674,406.932 25.7901326,396.36 L25.3191326,396.063 C35.5511326,395.371 41.9801326,395.273 49.0151326,396.656 C50.1261326,394.976 57.3961326,396.458 59.7861326,395.964 L59.5501326,395.865 C65.7771326,397.15 72.3741326,394.779 78.3991326,395.964 C78.1631326,395.865 78.0291326,395.371 76.6491326,395.371 C81.0241326,395.569 87.0151326,395.964 87.3521326,394.976 C97.8201326,395.273 112.394133,394.779 119.092133,396.36 L118.621133,396.063 C122.424133,397.15 123.568133,396.261 127.843133,396.755 C128.079133,396.656 128.382133,396.557 128.314133,396.458 C132.488133,397.545 140.465133,396.656 143.797133,397.051 L143.999133,396.36 L152.279133,396.557 L149.183133,396.656 C150.260133,398.434 155.443133,395.47 161.434133,396.656 C167.055133,396.458 172.845133,400.411 178.667133,399.521 C181.461133,400.411 176.210133,398.138 180.384133,398.83 C180.519133,397.842 178.432133,398.237 179.509133,397.446 C183.582133,397.94 186.207133,396.458 191.256133,397.15 L191.458133,396.458 C198.021133,397.842 203.844133,395.47 208.220133,396.755 C214.985133,397.348 212.763133,394.581 219.832133,395.964 L222.592133,394.976 C225.621133,394.779 224.746133,396.162 228.112133,395.668 C227.910133,395.075 232.353133,395.174 230.367133,394.581 C237.940133,393.593 245.749133,395.964 255.745133,394.285 C257.900133,395.47 262.948133,394.779 264.564133,395.668 C264.833133,395.174 274.628133,395.569 269.007133,394.383 C268.536133,394.284 267.661133,394.285 267.728133,394.482 L267.055133,393.79 C272.743133,392.407 277.388133,394.581 283.042133,394.285 C281.360133,394.482 279.138133,394.482 280.619133,394.976 L285.870133,394.877 L284.793133,394.285 L292.601133,393.889 L291.524133,394.68 C295.328133,394.285 296.674133,393 300.983133,394.087 C302.935133,394.68 297.381133,395.075 301.386133,395.371 C306.502133,394.877 314.143133,394.087 320.639133,393.889 C320.033133,394.779 321.783133,394.68 323.601133,394.877 L323.803133,394.186 C330.703133,395.174 326.327133,392.605 333.194133,393.395 L332.588133,392.901 L334.405133,394.482 C340.599133,395.964 337.738133,393 344.604133,394.976 C341.878133,394.877 343.325133,396.557 346.657133,396.261 L345.816133,395.569 C347.667133,395.767 348.273133,396.063 349.518133,395.865 C348.407133,395.47 348.946133,394.877 351.672133,394.976 L349.855133,394.087 L355.004133,395.371 C358.976133,394.581 365.270133,395.569 366.920133,394.581 C366.920133,394.581 375.469133,394.087 377.421133,395.174 C375.704133,394.482 380.417133,394.186 379.070133,393.395 C381.292133,394.186 387.821133,394.779 390.447133,393.988 L389.942133,393.889 C399.636133,393 406.502133,395.075 415.186133,393.988 C414.782133,394.877 419.393133,394.383 418.249133,395.47 C427.236133,396.557 434.640133,393.198 437.905133,396.656 C442.012133,396.854 442.752133,395.865 444.873133,395.668 L443.897133,395.47 C451.571133,395.767 453.792133,395.767 459.480133,395.668 C462.308133,395.964 462.779133,397.545 467.861133,397.15 C466.212133,396.557 468.299133,396.656 470.184133,396.656 C468.972133,396.557 468.602133,396.36 471.093133,395.865 C471.429133,396.063 472.001133,396.162 472.506133,396.261 C472.540133,396.261 472.641133,396.162 472.574133,396.063 C475.738133,396.261 475.199133,396.458 473.718133,396.557 C473.785133,396.656 473.684133,396.755 473.213133,396.952 C476.512133,396.162 482.402133,397.051 482.806133,395.964 C492.365133,396.261 499.197133,397.348 507.141133,397.743 C508.050133,397.15 506.165133,396.656 503.876133,396.458 L509.531133,396.656 C509.497133,395.865 506.299133,396.162 504.549133,396.063 C511.281133,394.779 518.416133,397.348 526.293133,396.162 L527.942133,396.755 L528.413133,396.656 C528.379133,396.952 530.163133,397.446 531.308133,397.545 C532.418133,396.854 531.240133,395.964 535.145133,395.964 C538.241133,395.273 543.896133,396.261 547.935133,396.656 C545.747133,396.755 546.454133,397.15 547.396133,397.446 C549.349133,397.446 550.459133,396.755 551.974133,397.051 L552.176133,396.162 C551.402133,397.051 557.258133,397.15 557.999133,397.446 C559.110133,396.755 554.970133,396.854 554.498133,396.36 C562.307133,396.458 558.403133,396.359 566.245133,396.458 C570.419133,397.15 565.471133,397.348 567.491133,398.138 C571.159133,398.336 574.761133,398.928 579.002133,398.434 L577.655133,399.225 C584.589133,399.916 588.729133,399.818 593.374133,398.928 C644.939133,405.647 604.246133,408.118 604.246133,408.118 C583.849133,410.192 573.381133,407.821 549.214133,407.129 L549.214133,407.129 Z" id="Shape" fill="#3988C4" fill-rule="nonzero"></path>
            <circle id="Oval" fill="#2E4251" fill-rule="nonzero" transform="translate(518.688914, 200.738101) scale(-1, 1) rotate(30.000000) translate(-518.688914, -200.738101) " cx="518.688914" cy="200.738101" r="9.289"></circle>
            <circle id="Oval" fill="#2E4251" fill-rule="nonzero" transform="translate(81.000133, 328.050000) scale(-1, 1) rotate(-180.000000) translate(-81.000133, -328.050000) " cx="81.0001326" cy="328.05" r="11"></circle>
            <circle id="Oval" fill="#E1E4E5" fill-rule="nonzero" transform="translate(180.489133, 111.540000) rotate(-180.000000) translate(-180.489133, -111.540000) " cx="180.489133" cy="111.54" r="7.49"></circle>
            <circle id="Oval" fill="#E1E4E5" fill-rule="nonzero" transform="translate(133.993133, 323.890000) rotate(-180.000000) translate(-133.993133, -323.890000) " cx="133.993133" cy="323.89" r="6.955"></circle>
            <circle id="Oval" fill="#E1E4E5" fill-rule="nonzero" transform="translate(36.628133, 208.337000) rotate(-180.000000) translate(-36.628133, -208.337000) " cx="36.6281326" cy="208.337" r="6.955"></circle>
            <circle id="Oval" fill="#3988C4" fill-rule="nonzero" transform="translate(92.399133, 131.449000) scale(-1, 1) rotate(-180.000000) translate(-92.399133, -131.449000) " cx="92.3991326" cy="131.449" r="18.337"></circle>
            <circle id="Oval" fill="#E1E4E5" fill-rule="nonzero" transform="translate(387.461133, 94.815000) rotate(45.000000) translate(-387.461133, -94.815000) " cx="387.461133" cy="94.815" r="8.624"></circle>
            <circle id="Oval" fill="#3988C4" fill-rule="nonzero" transform="translate(518.661834, 280.937561) scale(-1, 1) rotate(-45.000000) translate(-518.661834, -280.937561) " cx="518.661834" cy="280.937561" r="15.449"></circle>
        </g>
    </g>
</svg>