<svg xmlns="http://www.w3.org/2000/svg"  viewBox="0 0 100 100" width="200px" height="200px"><path d="M17.5,87.994c-5.79,0-10.5-4.71-10.5-10.5v-50c0-5.79,4.71-10.5,10.5-10.5h11.517v-0.5 c0-5.79,4.71-10.5,10.5-10.5h23.009c5.79,0,10.5,4.71,10.5,10.5v0.5H84.5c5.79,0,10.5,4.71,10.5,10.5v50 c0,5.057-3.912,10.5-12.5,10.5H17.5z" opacity=".35"/><path fill="#f2f2f2" d="M15.5,85.994c-5.79,0-10.5-4.71-10.5-10.5v-50c0-5.79,4.71-10.5,10.5-10.5h11.517v-0.5 c0-5.79,4.71-10.5,10.5-10.5h23.009c5.79,0,10.5,4.71,10.5,10.5v0.5H82.5c5.79,0,10.5,4.71,10.5,10.5v50 c0,5.057-3.912,10.5-12.5,10.5H15.5z"/><path fill="#ffc571" d="M82.5,21.494l-16.75,1.5H32.9l-17.4-1.5c-2.209,0-4,1.791-4,4v21c0,1.657,0,29,0,29 c0,2.209,1.791,4,4,4h65c4.209,0,6-1.791,6-4v-50C86.5,23.285,84.709,21.494,82.5,21.494z"/><path fill="none" stroke="#40396e" stroke-linecap="round" stroke-linejoin="round" stroke-miterlimit="10" stroke-width="3" d="M35.5,12.494h27v9h-27V12.494z"/><rect width="4" height="10" x="33" y="12.994" fill="#40396e"/><rect width="4" height="10" x="61" y="12.994" fill="#40396e"/><rect width="29" height="3" x="34" y="10.994" fill="#40396e"/><rect width="74" height="20" x="11" y="23" fill="#707cc0"/><path fill="none" stroke="#40396e" stroke-linecap="round" stroke-linejoin="round" stroke-miterlimit="10" stroke-width="3" d="M82.5,21.494H64.525v-7c0-2.209-1.791-4-4-4H37.516c-2.209,0-4,1.791-4,4v7H15.5c-2.209,0-4,1.791-4,4v50c0,2.209,1.791,4,4,4h65 c4.209,0,6-1.791,6-4v-50C86.5,23.285,84.709,21.494,82.5,21.494z"/><rect width="10" height="14" x="24" y="36" fill="#d9eeff"/><rect width="10" height="6" x="24" y="40" fill="#9aa2e6" transform="rotate(90 29 43)"/><rect width="10" height="14" x="64" y="36" fill="#d9eeff"/><rect width="10" height="6" x="64" y="40" fill="#9aa2e6" transform="rotate(90 69 43)"/></svg>